# xmcd
#
# Track frame offsets:
#	150
#	26245
#	50982
#	71324
#	89892
#	109381
#	124697
#	138615
#	159043
#	175067
#	193243
#	215994
#	231174
#	249230
#	269028
#
# Disc length: 3844 seconds
#
# Revision: 2
# Processed by: cddbd v1.5.2PL0 Copyright (c) Steve Scherf et al.
# Submitted via: audiograbber 1.83.01
#
DISCID=ed0f020f
DTITLE=Enya - Trish Love With Enya
DYEAR=1900
DGENRE=Country
TTITLE0=The Mummers' Dance
TTITLE1=The Mo Run Air A Ghille
TTITLE2=Far Away
TTITLE3=Ready For The Story
TTITLE4=Prologue
TTITLE5=Angel Dream
TTITLE6=Lyra
TTITLE7=May It Be
TTITLE8=Dark Alan
TTITLE9=The Sally Gardens
TTITLE10=Summer Snow
TTITLE11=He Moved Through The Fair
TTITLE12=Heaven
TTITLE13=Carrickfergus
TTITLE14=Love Song
EXTD=
EXTT0=
EXTT1=
EXTT2=
EXTT3=
EXTT4=
EXTT5=
EXTT6=
EXTT7=
EXTT8=
EXTT9=
EXTT10=
EXTT11=
EXTT12=
EXTT13=
EXTT14=
PLAYORDER=
